<?xml version="1.0" standalone="no"?>
<!DOCTYPE svg PUBLIC "-//W3C//DTD SVG 20010904//EN"
 "http://www.w3.org/TR/2001/REC-SVG-20010904/DTD/svg10.dtd">
<svg version="1.0" xmlns="http://www.w3.org/2000/svg"
 width="128.000000pt" height="128.000000pt" viewBox="0 0 128.000000 128.000000"
 preserveAspectRatio="xMidYMid meet">
<metadata>
Created by potrace 1.16, written by Peter Selinger 2001-2019
</metadata>
<g transform="translate(0.000000,128.000000) scale(0.100000,-0.100000)"
fill="#000000" stroke="none">
<path d="M562 1080 c-41 -71 -71 -134 -67 -140 3 -5 26 -10 51 -10 41 0 44 -2
34 -19 -5 -11 -24 -23 -42 -26 -18 -4 -62 -21 -98 -38 -36 -17 -69 -31 -73
-31 -5 -1 -17 23 -27 53 -49 138 -170 255 -272 263 l-33 3 -3 -68 c-6 -128 44
-259 133 -355 l52 -56 -24 -52 c-32 -71 -45 -153 -33 -216 27 -142 171 -264
356 -303 273 -58 563 88 604 303 12 63 -1 145 -33 216 l-24 52 52 56 c89 96
139 227 133 355 l-3 68 -33 -3 c-102 -8 -223 -125 -272 -263 -10 -30 -22 -54
-27 -53 -4 0 -40 16 -79 34 l-71 34 60 56 c37 35 58 61 53 68 -4 7 -27 12 -52
12 l-45 0 65 78 c95 112 95 112 -71 112 l-138 0 -73 -130z m298 95 c0 -3 -31
-43 -70 -88 -38 -45 -69 -86 -67 -92 2 -5 23 -12 47 -15 l44 -5 -49 -42 c-45
-39 -55 -43 -103 -43 l-53 0 17 31 c19 38 12 47 -42 51 l-42 3 49 85 c26 47
53 93 59 103 9 14 26 17 110 17 55 0 100 -2 100 -5z m-575 -270 c18 -38 37
-88 41 -110 10 -57 13 -59 43 -33 142 130 400 130 542 0 30 -26 33 -24 43 33
9 50 68 175 94 198 19 17 20 17 26 -21 7 -48 30 -70 79 -74 l38 -3 -31 -62
c-29 -57 -127 -163 -151 -163 -5 0 -9 -7 -9 -15 0 -8 7 -15 16 -15 23 0 67
-105 72 -172 11 -152 -114 -293 -303 -343 -76 -19 -214 -19 -290 0 -189 50
-314 191 -303 343 5 67 49 172 72 172 9 0 16 7 16 15 0 8 -4 15 -9 15 -24 0
-122 106 -151 163 l-31 62 38 3 c49 4 72 26 79 74 6 38 7 38 26 21 11 -9 34
-49 53 -88z"/>
<path d="M349 641 c-20 -20 -29 -39 -29 -61 0 -43 47 -90 90 -90 43 0 90 47
90 90 0 43 -47 90 -90 90 -22 0 -41 -9 -61 -29z"/>
<path d="M809 641 c-20 -20 -29 -39 -29 -61 0 -43 47 -90 90 -90 43 0 90 47
90 90 0 43 -47 90 -90 90 -22 0 -41 -9 -61 -29z"/>
</g>
</svg>
