<?xml version="1.0" standalone="no"?>
<!DOCTYPE svg PUBLIC "-//W3C//DTD SVG 20010904//EN"
 "http://www.w3.org/TR/2001/REC-SVG-20010904/DTD/svg10.dtd">
<svg version="1.0" xmlns="http://www.w3.org/2000/svg"
 width="96.000000pt" height="96.000000pt" viewBox="0 0 96.000000 96.000000"
 preserveAspectRatio="xMidYMid meet">
<metadata>
Created by potrace 1.16, written by Peter Selinger 2001-2019
</metadata>
<g transform="translate(0.000000,96.000000) scale(0.100000,-0.100000)"
fill="#000000" stroke="none">
<path d="M349 936 c-153 -43 -284 -176 -325 -330 -18 -66 -18 -186 0 -252 42
-157 173 -288 330 -330 66 -18 186 -18 252 0 157 42 288 173 330 330 8 28 14
85 14 126 0 41 -6 98 -14 126 -42 157 -173 288 -330 330 -63 17 -195 17 -257
0z m199 -336 c42 -26 72 -76 72 -120 0 -44 -30 -94 -72 -120 -117 -71 -259 71
-188 188 42 68 124 91 188 52z m-245 -266 c51 -58 105 -84 177 -84 72 0 126
26 177 84 l41 46 101 0 c117 0 116 1 75 -86 -40 -84 -113 -158 -202 -201 -75
-37 -78 -38 -192 -38 -114 0 -117 1 -192 38 -89 43 -162 117 -202 201 -41 87
-42 86 75 86 l101 0 41 -46z"/>
<path d="M442 565 c-21 -9 -38 -27 -48 -50 -20 -49 1 -100 51 -120 31 -14 39
-14 70 0 78 32 78 138 1 170 -41 18 -33 18 -74 0z"/>
</g>
</svg>
